# xmcd CD database file
#
# Track frame offsets:
#	150
#	17925
#	40285
#	59195
#	78687
#	94357
#	114580
#	133892
#	153342
#	177540
#
# Disc length: 2646 seconds
#
# Revision: 2
# Processed by: cddbd v1.5.2PL0 Copyright (c) Steve Scherf et al.
# Submitted via: CDex 1.70beta3
#
DISCID=950a540a
DTITLE=Training Point - River Dance
DYEAR=1994
DGENRE=Hard Rock
TTITLE0=The Swam
TTITLE1=Tht's The Way It's Gonna Be
TTITLE2=From Rome To Tokyo
TTITLE3=Child Of Rain
TTITLE4=Streets Of Roses
TTITLE5=I Will Return
TTITLE6=Let It Go
TTITLE7=Larger Than Life
TTITLE8=Highlands
TTITLE9=Back To America
EXTD=YEAR: 1994
EXTT0=
EXTT1=
EXTT2=
EXTT3=
EXTT4=
EXTT5=
EXTT6=
EXTT7=
EXTT8=
EXTT9=
PLAYORDER=
